<svg xmlns="http://www.w3.org/2000/svg" viewBox="0 0 720 520" font-family="Segoe UI, Arial, sans-serif">
  <defs>
    <marker id="arrow1" markerWidth="10" markerHeight="7" refX="10" refY="3.5" orient="auto"><polygon points="0 0, 10 3.5, 0 7" fill="#475569"/></marker>
    <linearGradient id="bg1" x1="0" y1="0" x2="0" y2="1"><stop offset="0%" stop-color="#f8fafc"/><stop offset="100%" stop-color="#e2e8f0"/></linearGradient>
  </defs>
  <rect width="720" height="520" rx="12" fill="url(#bg1)" stroke="#cbd5e1" stroke-width="1.5"/>
  <text x="360" y="40" text-anchor="middle" font-size="20" font-weight="700" fill="#1e293b">Re-Ranking RAG</text>
  <text x="360" y="62" text-anchor="middle" font-size="12" fill="#64748b">Bi-encoder retrieval + Cross-encoder re-scoring</text>

  <!-- User Query -->
  <rect x="270" y="85" width="180" height="44" rx="22" fill="#3b82f6" stroke="#2563eb" stroke-width="1.5"/>
  <text x="360" y="112" text-anchor="middle" font-size="14" font-weight="600" fill="#fff">User Query</text>

  <!-- Arrow -->
  <line x1="360" y1="129" x2="360" y2="160" stroke="#475569" stroke-width="1.5" marker-end="url(#arrow1)"/>

  <!-- Bi-Encoder Retrieval -->
  <rect x="210" y="165" width="300" height="50" rx="8" fill="#dbeafe" stroke="#93c5fd" stroke-width="1.5"/>
  <text x="360" y="185" text-anchor="middle" font-size="13" font-weight="600" fill="#1e40af">Bi-Encoder Retrieval (FAISS)</text>
  <text x="360" y="202" text-anchor="middle" font-size="11" fill="#3b82f6">Fast vector similarity search 路 k=10</text>

  <!-- Arrow -->
  <line x1="360" y1="215" x2="360" y2="246" stroke="#475569" stroke-width="1.5" marker-end="url(#arrow1)"/>

  <!-- Top-N Candidates -->
  <rect x="230" y="251" width="260" height="40" rx="8" fill="#fff" stroke="#cbd5e1" stroke-width="1.5"/>
  <text x="360" y="276" text-anchor="middle" font-size="13" fill="#475569">Top-10 Candidate Documents</text>

  <!-- Arrow -->
  <line x1="360" y1="291" x2="360" y2="322" stroke="#475569" stroke-width="1.5" marker-end="url(#arrow1)"/>

  <!-- Cross-Encoder -->
  <rect x="190" y="327" width="340" height="50" rx="8" fill="#fef3c7" stroke="#fbbf24" stroke-width="1.5"/>
  <text x="360" y="347" text-anchor="middle" font-size="13" font-weight="600" fill="#92400e">Cross-Encoder Re-Ranking</text>
  <text x="360" y="364" text-anchor="middle" font-size="11" fill="#b45309">ms-marco-MiniLM-L-6-v2 路 Joint query-doc scoring</text>

  <!-- Arrow -->
  <line x1="360" y1="377" x2="360" y2="408" stroke="#475569" stroke-width="1.5" marker-end="url(#arrow1)"/>

  <!-- Top-K Reranked -->
  <rect x="230" y="413" width="260" height="40" rx="8" fill="#fff" stroke="#cbd5e1" stroke-width="1.5"/>
  <text x="360" y="438" text-anchor="middle" font-size="13" fill="#475569">Top-3 Re-ranked Documents</text>

  <!-- Arrow -->
  <line x1="360" y1="453" x2="360" y2="464" stroke="#475569" stroke-width="1.5" marker-end="url(#arrow1)"/>

  <!-- LLM Generation -->
  <rect x="230" y="468" width="260" height="40" rx="8" fill="#dcfce7" stroke="#86efac" stroke-width="1.5"/>
  <text x="360" y="493" text-anchor="middle" font-size="13" font-weight="600" fill="#166534">LLM Generation (GPT-4o-mini)</text>

  <!-- Side labels -->
  <rect x="30" y="165" width="140" height="50" rx="6" fill="#f1f5f9" stroke="#e2e8f0" stroke-width="1"/>
  <text x="100" y="186" text-anchor="middle" font-size="11" font-weight="600" fill="#64748b">Stage 1</text>
  <text x="100" y="201" text-anchor="middle" font-size="10" fill="#94a3b8">Fast 路 High Recall</text>

  <rect x="30" y="327" width="140" height="50" rx="6" fill="#f1f5f9" stroke="#e2e8f0" stroke-width="1"/>
  <text x="100" y="348" text-anchor="middle" font-size="11" font-weight="600" fill="#64748b">Stage 2</text>
  <text x="100" y="363" text-anchor="middle" font-size="10" fill="#94a3b8">Slow 路 High Precision</text>
</svg>