<svg xmlns="http://www.w3.org/2000/svg" viewBox="0 0 720 520" font-family="Segoe UI, Arial, sans-serif">
  <defs>
    <marker id="arrow10" markerWidth="10" markerHeight="7" refX="10" refY="3.5" orient="auto"><polygon points="0 0, 10 3.5, 0 7" fill="#475569"/></marker>
    <linearGradient id="bg10" x1="0" y1="0" x2="0" y2="1"><stop offset="0%" stop-color="#f8fafc"/><stop offset="100%" stop-color="#e2e8f0"/></linearGradient>
  </defs>
  <rect width="720" height="520" rx="12" fill="url(#bg10)" stroke="#cbd5e1" stroke-width="1.5"/>
  <text x="360" y="40" text-anchor="middle" font-size="20" font-weight="700" fill="#1e293b">Fine-Tuned RAG</text>
  <text x="360" y="62" text-anchor="middle" font-size="12" fill="#64748b">Domain-adapted model for improved RAG performance</text>

  <!-- Training Pipeline (left) -->
  <rect x="40" y="85" width="300" height="350" rx="10" fill="none" stroke="#f59e0b" stroke-width="1.5" stroke-dasharray="6,3"/>
  <text x="60" y="107" font-size="12" font-weight="700" fill="#d97706">Training Pipeline (Offline)</text>

  <rect x="80" y="125" width="220" height="40" rx="8" fill="#dbeafe" stroke="#93c5fd" stroke-width="1.5"/>
  <text x="190" y="150" text-anchor="middle" font-size="12" font-weight="600" fill="#1e40af">Domain Documents</text>

  <line x1="190" y1="165" x2="190" y2="190" stroke="#475569" stroke-width="1.5" marker-end="url(#arrow10)"/>

  <rect x="65" y="195" width="250" height="50" rx="8" fill="#fef3c7" stroke="#fbbf24" stroke-width="1.5"/>
  <text x="190" y="216" text-anchor="middle" font-size="12" font-weight="600" fill="#92400e">Generate Training Data</text>
  <text x="190" y="234" text-anchor="middle" font-size="10" fill="#b45309">JSONL: system + context + Q&amp;A pairs</text>

  <line x1="190" y1="245" x2="190" y2="270" stroke="#475569" stroke-width="1.5" marker-end="url(#arrow10)"/>

  <rect x="60" y="275" width="260" height="60" rx="8" fill="#fff" stroke="#cbd5e1" stroke-width="1.5"/>
  <text x="190" y="296" text-anchor="middle" font-size="11" font-weight="600" fill="#475569">Training Format (OpenAI)</text>
  <text x="190" y="312" text-anchor="middle" font-size="9" fill="#94a3b8">{"messages": [</text>
  <text x="190" y="325" text-anchor="middle" font-size="9" fill="#94a3b8">  {system}, {user: ctx+q}, {assistant: a}]}</text>

  <line x1="190" y1="335" x2="190" y2="360" stroke="#475569" stroke-width="1.5" marker-end="url(#arrow10)"/>

  <rect x="90" y="365" width="200" height="45" rx="8" fill="#ede9fe" stroke="#c4b5fd" stroke-width="1.5"/>
  <text x="190" y="386" text-anchor="middle" font-size="12" font-weight="600" fill="#5b21b6">Fine-Tune LLM</text>
  <text x="190" y="402" text-anchor="middle" font-size="10" fill="#7c3aed">ft:gpt-4o-mini:org::id</text>

  <!-- Inference Pipeline (right) -->
  <rect x="380" y="85" width="300" height="350" rx="10" fill="none" stroke="#16a34a" stroke-width="1.5" stroke-dasharray="6,3"/>
  <text x="400" y="107" font-size="12" font-weight="700" fill="#16a34a">Inference Pipeline (Online)</text>

  <rect x="440" y="135" width="180" height="44" rx="22" fill="#3b82f6" stroke="#2563eb" stroke-width="1.5"/>
  <text x="530" y="162" text-anchor="middle" font-size="14" font-weight="600" fill="#fff">User Query</text>

  <line x1="530" y1="179" x2="530" y2="210" stroke="#475569" stroke-width="1.5" marker-end="url(#arrow10)"/>

  <rect x="420" y="215" width="220" height="40" rx="8" fill="#dbeafe" stroke="#93c5fd" stroke-width="1.5"/>
  <text x="530" y="240" text-anchor="middle" font-size="12" font-weight="600" fill="#1e40af">FAISS Retrieval</text>

  <line x1="530" y1="255" x2="530" y2="285" stroke="#475569" stroke-width="1.5" marker-end="url(#arrow10)"/>

  <rect x="420" y="290" width="220" height="40" rx="8" fill="#fff" stroke="#cbd5e1" stroke-width="1.5"/>
  <text x="530" y="315" text-anchor="middle" font-size="12" fill="#475569">Retrieved Context</text>

  <line x1="530" y1="330" x2="530" y2="365" stroke="#475569" stroke-width="1.5" marker-end="url(#arrow10)"/>

  <rect x="400" y="370" width="260" height="45" rx="8" fill="#dcfce7" stroke="#86efac" stroke-width="1.5"/>
  <text x="530" y="390" text-anchor="middle" font-size="13" font-weight="600" fill="#166534">Fine-Tuned LLM</text>
  <text x="530" y="407" text-anchor="middle" font-size="11" fill="#15803d">Domain-optimized generation</text>

  <!-- Connection arrow -->
  <path d="M 290 388 L 400 388" stroke="#8b5cf6" stroke-width="1.5" stroke-dasharray="4,3" marker-end="url(#arrow10)"/>
  <text x="345" y="380" text-anchor="middle" font-size="9" fill="#7c3aed">model</text>

  <!-- Bottom -->
  <text x="360" y="480" text-anchor="middle" font-size="11" fill="#64748b">Key Idea: Domain-specific fine-tuning improves terminology &amp; reasoning</text>
</svg>